<svg id="Layer_1" data-name="Layer 1" xmlns="http://www.w3.org/2000/svg" viewBox="0 0 39 48"><title>android</title><path d="M35,15.54A1.51,1.51,0,1,1,36.52,17h0A1.52,1.52,0,0,1,35,15.54h0Zm-16.5,21V26a3,3,0,0,0-6,0v10.5a3,3,0,1,0,6,0h0ZM44,23H20V42.48a2.85,2.85,0,0,0,2.85,2.85H23V53a3,3,0,1,0,6,0V45.33h6V53a3,3,0,1,0,6,0V45.33h0.21A2.84,2.84,0,0,0,44,42.48V23Zm1.49,3v10.5a3,3,0,1,0,6,0V26a3,3,0,0,0-6,0h0ZM29,15.54A1.51,1.51,0,0,1,27.5,17,1.48,1.48,0,0,1,26,15.55s0,0,0,0A1.49,1.49,0,0,1,27.5,14,1.52,1.52,0,0,1,29,15.54h0Zm-9,6H44a12,12,0,0,0-5-9.73l2.51-2.51a0.74,0.74,0,0,0,0-1h0a0.74,0.74,0,0,0-1.05,0h0L37.71,11a11.74,11.74,0,0,0-11.44,0L23.5,8.22a0.7,0.7,0,0,0-1,0l0,0a0.74,0.74,0,0,0,0,1.05h0l2.47,2.51a12.09,12.09,0,0,0-5,9.73h0Z" transform="translate(-12.49 -8)"/></svg>