<?xml version="1.0" encoding="utf-8"?>
<!-- Generator: Adobe Illustrator 19.2.1, SVG Export Plug-In . SVG Version: 6.00 Build 0)  -->
<svg version="1.1" id="Apple" xmlns="http://www.w3.org/2000/svg" xmlns:xlink="http://www.w3.org/1999/xlink" x="0px" y="0px"
	 viewBox="0 0 64 64" style="enable-background:new 0 0 64 64;" xml:space="preserve">
<path d="M34.5,19.9c-0.7,0.2-1.6,0.4-2.8,0.5c0.1-2.7,0.8-5,2.1-7c1.3-1.9,3.6-3.3,6.8-4c0,0.1,0,0.2,0.1,0.3c0,0.1,0,0.2,0.1,0.3
	c0,0.1,0,0.2,0,0.3c0,0.1,0,0.2,0,0.3c0,1.1-0.3,2.3-0.8,3.7c-0.5,1.4-1.4,2.6-2.5,3.8C36.4,18.9,35.4,19.6,34.5,19.9z M46.7,39
	c-1.3-1.8-1.9-3.8-1.9-6.1c0-2.1,0.6-3.9,1.8-5.6c0.6-0.9,1.7-2,3.1-3.2c-0.9-1.2-1.9-2.1-2.8-2.7c-1.7-1.2-3.6-1.8-5.8-1.8
	c-1.3,0-2.9,0.3-4.7,0.9c-1.8,0.6-3.1,0.9-3.9,0.9c-0.6,0-1.9-0.3-3.8-0.8c-1.9-0.5-3.5-0.8-4.8-0.8c-3.1,0-5.7,1.3-7.8,3.9
	C14,26.4,13,29.8,13,33.9c0,4.4,1.3,9,4,13.7c2.7,4.7,5.4,7.1,8.2,7.1c0.9,0,2.1-0.3,3.6-0.9c1.5-0.6,2.8-0.9,3.9-0.9
	c1.2,0,2.6,0.3,4.1,0.9c1.7,0.6,2.9,0.9,3.8,0.9c2.3,0,4.7-1.8,7-5.3c1.5-2.3,2.6-4.5,3.4-6.8C49.4,42,47.9,40.8,46.7,39z"/>
</svg>
