<svg id="Layer_1" data-name="Layer 1" xmlns="http://www.w3.org/2000/svg" viewBox="0 0 566.93 137.32"><defs><style>.cls-1{fill:#fff;}</style></defs><title>logo-white</title><path class="cls-1" d="M478.42,65.24h2.52V64c0-3.41-2.76-4.63-5.93-4.63-4.42,0-8.94,2.41-10.73,3.48a0.89,0.89,0,0,1-1.25-.36L459,54.57a0.89,0.89,0,0,1,.3-1.15,32,32,0,0,1,17-5c12.18,0,18.67,6.09,18.67,17.05v13.8a1.79,1.79,0,0,0,1.79,1.79H499a0.89,0.89,0,0,1,.89.89v8.36a0.89,0.89,0,0,1-.89.89h-11.2c-4.06,0-5.6-2.35-5.6-4.38V86.6a5.25,5.25,0,0,1,.16-1.3h-0.16a13.81,13.81,0,0,1-12.34,6.9c-7.31,0-13.72-4.47-13.72-12.91C456.1,67,471.93,65.24,478.42,65.24ZM474,82c3.57,0,7.14-4.3,7.14-8v-1h-1.3c-4.63,0-9.58,1.46-9.58,5.2A3.54,3.54,0,0,0,474,82Z"/><path class="cls-1" d="M503.84,81.07h4.38V59.56h-4.79a0.89,0.89,0,0,1-.89-0.89V50.3a0.89,0.89,0,0,1,.89-0.89h17.94a0.89,0.89,0,0,1,.89.89V81.07h4.38a0.89,0.89,0,0,1,.89.89v8.36a0.89,0.89,0,0,1-.89.89H503.84a0.89,0.89,0,0,1-.89-0.89V82A0.89,0.89,0,0,1,503.84,81.07Zm5.44-47.9h11.94a0.89,0.89,0,0,1,.89.89v9.17a0.89,0.89,0,0,1-.89.89H509.28a0.89,0.89,0,0,1-.89-0.89V34.06A0.89,0.89,0,0,1,509.28,33.17Z"/><path class="cls-1" d="M530.88,76.45h10a0.89,0.89,0,0,1,.89.89v1.22c0,1.87,2,3,6.09,3,3.33,0,5.12-.81,5.12-2.44,0-2.6-2.84-2.92-8.2-4.71-6.09-2-13.32-5-13.32-13.4,0-9.82,9.91-12.59,17.94-12.59,6.41,0,16,2.27,16,9.09v4.79a0.89,0.89,0,0,1-.89.89h-10a0.89,0.89,0,0,1-.89-0.89v-1c0-1.3-1.22-2.27-4.22-2.27-2.27,0-4,.49-4,2.11,0,2.52,3.33,3.49,7.31,4.55,6.33,1.71,14.21,4.3,14.21,13,0,9.42-9.18,13.48-19.08,13.48C540.38,92.2,530,89,530,82V77.34A0.89,0.89,0,0,1,530.88,76.45Z"/><path class="cls-1" d="M453.57,81.07h-4.38v-17c0-11.53-6-15.67-13.15-15.67a15.25,15.25,0,0,0-13.8,7.88h-0.16c-2-5.85-6.33-7.88-10.88-7.88-7.06,0-11.12,4.79-13.23,8h-0.16a8.55,8.55,0,0,0,.08-1V54.12c0-2.84-2-4.71-5.85-4.71H379.69a0.88,0.88,0,0,0-.74.43,29.83,29.83,0,0,1,.29,40.66,0.88,0.88,0,0,0,.86.73h22.82a0.89,0.89,0,0,0,.89-0.89V82a0.89,0.89,0,0,0-.89-0.89h-4.38V74.74c0-6.74,1.62-13.56,8-13.56,2.68,0,3.25,2.19,3.25,5.28V91.22h18.43a0.89,0.89,0,0,0,.89-0.89V82a0.89,0.89,0,0,0-.89-0.89h-4.38V73.93c0-7,1.95-12.75,8-12.75,2.68,0,3.25,2.19,3.25,5.28V91.22h18.43a0.89,0.89,0,0,0,.89-0.89V82A0.89,0.89,0,0,0,453.57,81.07Z"/><path class="cls-1" d="M162.73,99.75V59.31a1.79,1.79,0,0,0-1.79-1.79H157.2a0.89,0.89,0,0,1-.89-0.89V50.7a0.89,0.89,0,0,1,.89-0.89h9.75c3.82,0,5.12,1.79,5.12,3.9V54c0,1-.08,1.87-0.08,1.87h0.16s3.57-7,13.31-7c11.21,0,18.35,8.85,18.35,21.68,0,13.15-8,21.68-18.92,21.68A14.45,14.45,0,0,1,173,86.35h-0.16a23.94,23.94,0,0,1,.24,3.57v9.82h5.12a0.89,0.89,0,0,1,.89.89v5.94a0.89,0.89,0,0,1-.89.89H157.6a0.89,0.89,0,0,1-.89-0.89v-5.94a0.89,0.89,0,0,1,.89-0.89h5.12ZM183,83.51c5.68,0,10.39-4.63,10.39-12.83,0-7.88-4.22-13-10.31-13-5.36,0-10.39,3.9-10.39,13.07C172.71,77.18,176.29,83.51,183,83.51Z"/><path class="cls-1" d="M229,48.84c12.67,0,22.82,9,22.82,21.68S241.63,92.2,229,92.2s-22.81-8.93-22.81-21.68S216.38,48.84,229,48.84ZM229,83.43c6.66,0,12.26-5.2,12.26-12.91S235.7,57.61,229,57.61,216.7,62.89,216.7,70.52,222.3,83.43,229,83.43Z"/><path class="cls-1" d="M255.9,83.51H261V59.31a1.79,1.79,0,0,0-1.79-1.79H255.5a0.89,0.89,0,0,1-.89-0.89V50.71a0.89,0.89,0,0,1,.89-0.89h10c3.65,0,5.36,1.71,5.36,4.63v1.87a11.47,11.47,0,0,1-.16,1.79h0.16a16.61,16.61,0,0,1,15.27-9.26C295,48.84,300,53.63,300,64.59V83.51h5.12a0.89,0.89,0,0,1,.89.89v5.93a0.89,0.89,0,0,1-.89.89H289.76V66.7c0-5-1.38-8.44-6.58-8.44-7.47,0-11.85,7.14-11.85,14.37V83.51h5a0.89,0.89,0,0,1,.89.89v5.93a0.89,0.89,0,0,1-.89.89H255.9a0.89,0.89,0,0,1-.89-0.89V84.4A0.89,0.89,0,0,1,255.9,83.51Z"/><path class="cls-1" d="M312,57.53h-5.44a0.89,0.89,0,0,1-.89-0.89V50.71a0.89,0.89,0,0,1,.89-0.89h5.76V39.42a0.89,0.89,0,0,1,.89-0.89h8.2a0.89,0.89,0,0,1,.89.89V49.81h8.52a0.89,0.89,0,0,1,.89.89v5.93a0.89,0.89,0,0,1-.89.89H322.3V75c0,7.06,5.36,8,8.28,8l0.94,0a0.89,0.89,0,0,1,.93.89v6.71a0.89,0.89,0,0,1-.79.89,21.1,21.1,0,0,1-2.38.13C323.44,91.63,312,89.92,312,76V57.53Z"/><path class="cls-1" d="M357.2,48.84c12.67,0,22.82,9,22.82,21.68S369.86,92.2,357.28,92.2s-22.81-8.93-22.81-21.68S344.61,48.84,357.2,48.84Zm0.08,34.59c6.66,0,12.26-5.2,12.26-12.91s-5.6-12.91-12.26-12.91-12.34,5.28-12.34,12.91S350.54,83.43,357.28,83.43Z"/><path class="cls-1" d="M124.68,30a3.21,3.21,0,0,0-4.46-.82l-4.4,3-4.31,3.18-4.21,3.32c-1.39,1.13-2.74,2.3-4.12,3.46s-2.67,2.39-4,3.58-2.6,2.47-3.91,3.7S92.71,52,91.44,53.31s-2.46,2.62-3.7,3.93-2.39,2.69-3.59,4S81.82,64,80.65,65.41s-2.25,2.82-3.38,4.23S75.09,72.51,74,74s-2.11,2.93-3.17,4.4C69.92,79.65,69,81,68.15,82.27c-2.65-2.63-5.41-5.18-8.33-7.59a82,82,0,0,0-9.64-6.9c-1.7-1-3.45-2-5.25-2.85-0.9-.43-1.81-0.83-2.74-1.22l-1.44-.58-1.31-.46a3.63,3.63,0,0,0-3.14,6.5l1.17,0.74,1,0.69c0.69,0.49,1.37,1,2,1.52,1.33,1.05,2.61,2.18,3.84,3.36a71.36,71.36,0,0,1,6.84,7.68A142.81,142.81,0,0,1,62.62,100.9h0l0.68,0.82A8.19,8.19,0,0,0,77,99.84l2.09-4.6,2.19-4.55,2.3-4.5c0.81-1.48,1.59-3,2.42-4.45s1.66-2.94,2.53-4.39,1.73-2.9,2.64-4.32S93,70.18,94,68.78s1.89-2.81,2.87-4.19,2-2.76,3-4.11,2-2.71,3.11-4,2.13-2.65,3.23-3.94,2.21-2.58,3.35-3.85,2.29-2.52,3.47-3.75l3.59-3.65,3.71-3.54,3.82-3.42,0.09-.08A3.21,3.21,0,0,0,124.68,30Z"/><path class="cls-1" d="M51.94,15.23a2.17,2.17,0,0,1-2.07-1.54L47.43,5.61a2.17,2.17,0,0,1,4.15-1.25L54,12.43A2.17,2.17,0,0,1,51.94,15.23Z"/><path class="cls-1" d="M68.66,12.77a2.17,2.17,0,0,1-2.17-2.17V2.17a2.17,2.17,0,1,1,4.34,0V10.6A2.17,2.17,0,0,1,68.66,12.77Z"/><path class="cls-1" d="M68.66,137.32a2.17,2.17,0,0,1-2.17-2.17v-8.43a2.17,2.17,0,1,1,4.34,0v8.43A2.17,2.17,0,0,1,68.66,137.32Z"/><path class="cls-1" d="M10.6,70.83H2.17a2.17,2.17,0,1,1,0-4.34H10.6A2.17,2.17,0,0,1,10.6,70.83Z"/><path class="cls-1" d="M5,90a2.17,2.17,0,0,1-.62-4.24l8.07-2.43a2.17,2.17,0,0,1,1.25,4.15L5.61,89.89A2.16,2.16,0,0,1,5,90Z"/><path class="cls-1" d="M35.45,23.22a2.17,2.17,0,0,1-1.78-.93l-4.83-6.93a2.17,2.17,0,0,1,3.56-2.48l4.83,6.93A2.17,2.17,0,0,1,35.45,23.22Z"/><path class="cls-1" d="M14.13,108.87a2.17,2.17,0,0,1-1.24-3.95l6.93-4.83a2.17,2.17,0,1,1,2.48,3.56l-6.93,4.83A2.16,2.16,0,0,1,14.13,108.87Z"/><path class="cls-1" d="M22.05,36.21a2.16,2.16,0,0,1-1.29-.43l-6.77-5a2.17,2.17,0,0,1,2.59-3.48l6.77,5A2.17,2.17,0,0,1,22.05,36.21Z"/><path class="cls-1" d="M103.28,24.22a2.17,2.17,0,0,1-1.74-3.46l5-6.77a2.17,2.17,0,0,1,3.48,2.59l-5,6.77A2.17,2.17,0,0,1,103.28,24.22Z"/><path class="cls-1" d="M29,124.21a2.17,2.17,0,0,1-1.74-3.46l5-6.77a2.17,2.17,0,1,1,3.48,2.59l-5,6.77A2.16,2.16,0,0,1,29,124.21Z"/><path class="cls-1" d="M13.57,52.5a2.17,2.17,0,0,1-.68-0.11l-8-2.66a2.17,2.17,0,0,1,1.37-4.11l8,2.66A2.17,2.17,0,0,1,13.57,52.5Z"/><path class="cls-1" d="M47.67,133.92a2.17,2.17,0,0,1-2.06-2.85l2.66-8a2.17,2.17,0,1,1,4.11,1.37l-2.66,8A2.17,2.17,0,0,1,47.67,133.92Z"/><path class="cls-1" d="M87,15.74a2.17,2.17,0,0,1-2.06-2.85l2.66-8a2.17,2.17,0,1,1,4.11,1.37l-2.66,8A2.17,2.17,0,0,1,87,15.74Z"/></svg>